<svg viewBox="0 0 11.000 9.900" xmlns="http://www.w3.org/2000/svg">
<rect width="11.000" height="9.900" fill="white" />
  <path d="M0.301023 0.270996 L0.301023 0.749566 M0.251464 0.94897 L0.350584 0.94897" transform="translate(0.050, 0.050)" stroke="black" stroke-width="0.02" fill="none" stroke-linecap="round" stroke-linejoin="round" />
  <path d="M0.165039 0.270996 L0.165039 0.523022 M0.43701 0.270996 L0.43701 0.523022" transform="translate(1.150, 0.050)" stroke="black" stroke-width="0.02" fill="none" stroke-linecap="round" stroke-linejoin="round" />
  <path d="M0.209579 0.282227 L0.146514 0.949731 M0.461842 0.282227 L0.398777 0.949731 M0.032998 0.526962 L0.600584 0.452792 M0.001464 0.823642 L0.569052 0.749471" transform="translate(2.250, 0.050)" stroke="black" stroke-width="0.02" fill="none" stroke-linecap="round" stroke-linejoin="round" />
  <path d="M0.307119 0.240234 L0.307119 1.083502 M0.490028 0.415915 L0.404673 0.328074 L0.233958 0.310506 L0.136405 0.398347 L0.099826 0.521324 L0.124211 0.591596 L0.197377 0.644299 L0.429058 0.697003 L0.502221 0.749708 L0.52661 0.837548 L0.477833 0.960526 L0.355895 1.013229 L0.197377 0.995661 L0.112019 0.942958 L0.075438 0.837548" transform="translate(3.350, 0.050)" stroke="black" stroke-width="0.02" fill="none" stroke-linecap="round" stroke-linejoin="round" />
  <path d="M0.301024 0.270996 L0.301024 0.523022" transform="translate(4.450, 0.050)" stroke="black" stroke-width="0.02" fill="none" stroke-linecap="round" stroke-linejoin="round" />
  <path d="M0.413084 0.241211 L0.372334 0.283469 L0.331586 0.334181 L0.290836 0.393344 L0.250088 0.460959 L0.219526 0.528575 L0.199151 0.59619 L0.188964 0.655352 L0.199151 0.714515 L0.219526 0.782131 L0.250088 0.849746 L0.290836 0.917361 L0.331586 0.976523 L0.372334 1.027235 L0.413084 1.069469" transform="translate(5.550, 0.050)" stroke="black" stroke-width="0.02" fill="none" stroke-linecap="round" stroke-linejoin="round" />
  <path d="M0.188964 0.241211 L0.229714 0.283469 L0.270464 0.334181 L0.311211 0.393344 L0.351961 0.460959 L0.382523 0.528575 L0.402897 0.59619 L0.413084 0.655352 L0.402897 0.714515 L0.382523 0.782131 L0.351961 0.849746 L0.311211 0.917361 L0.270464 0.976523 L0.229714 1.027235 L0.188964 1.069469" transform="translate(6.650, 0.050)" stroke="black" stroke-width="0.02" fill="none" stroke-linecap="round" stroke-linejoin="round" />
  <path d="M0.301025 0.458692 L0.301025 0.681919 M0.301025 0.458692 L0.520994 0.53682 M0.301025 0.458692 L0.439951 0.257813 M0.301025 0.458692 L0.162097 0.257813 M0.301025 0.458692 L0.081054 0.53682" transform="translate(7.750, 0.050)" stroke="black" stroke-width="0.02" fill="none" stroke-linecap="round" stroke-linejoin="round" />
  <path d="M0.042967 0.668441 L0.559081 0.668441 M0.301022 0.428223 L0.301022 0.908645" transform="translate(8.850, 0.050)" stroke="black" stroke-width="0.02" fill="none" stroke-linecap="round" stroke-linejoin="round" />
  <path d="M0.386717 0.852051 L0.215331 1.030656 L0.301022 1.119963" transform="translate(9.950, 0.050)" stroke="black" stroke-width="0.02" fill="none" stroke-linecap="round" stroke-linejoin="round" />
  <path d="M0.173828 0.686035 L0.42822 0.686035" transform="translate(0.050, 1.150)" stroke="black" stroke-width="0.02" fill="none" stroke-linecap="round" stroke-linejoin="round" />
  <path d="M0.362547 0.851074 L0.239502 0.851074" transform="translate(1.150, 1.150)" stroke="black" stroke-width="0.02" fill="none" stroke-linecap="round" stroke-linejoin="round" />
  <path d="M0.062499 1.035249 L0.539549 0.270996" transform="translate(2.250, 1.150)" stroke="black" stroke-width="0.02" fill="none" stroke-linecap="round" stroke-linejoin="round" />
  <path d="M0.301023 0.257813 L0.215024 0.28306 L0.138024 0.359983 L0.096024 0.471666 L0.086024 0.637294 L0.110024 0.776159 L0.172024 0.891237 L0.261024 0.952196 L0.341023 0.952196 L0.430024 0.891237 L0.492024 0.776159 L0.516024 0.637294 L0.506024 0.471666 L0.464024 0.359983 L0.387023 0.28306 L0.301023 0.257813" transform="translate(3.350, 1.150)" stroke="black" stroke-width="0.02" fill="none" stroke-linecap="round" stroke-linejoin="round" />
  <path d="M0.242024 0.426995 L0.360024 0.270996 L0.360024 0.948996" transform="translate(4.450, 1.150)" stroke="black" stroke-width="0.02" fill="none" stroke-linecap="round" stroke-linejoin="round" />
  <path d="M0.110409 0.392118 L0.125621 0.342292 L0.170571 0.295825 L0.244236 0.264313 L0.291517 0.257813 L0.373318 0.263802 L0.434681 0.290706 L0.468236 0.331966 L0.480289 0.379911 L0.479489 0.411803 L0.465085 0.465187 L0.40257 0.568979 L0.245133 0.766421 L0.07959 0.948022 L0.522459 0.948022" transform="translate(5.550, 1.150)" stroke="black" stroke-width="0.02" fill="none" stroke-linecap="round" stroke-linejoin="round" />
  <path d="M0.114024 0.340808 L0.146024 0.312808 L0.197024 0.282808 L0.262024 0.257813 L0.342023 0.262808 L0.412023 0.287808 L0.462024 0.332808 L0.492024 0.387808 L0.482024 0.447808 L0.442024 0.492808 L0.372023 0.527808 L0.292023 0.547808 L0.222024 0.557808 L0.292023 0.567808 L0.372023 0.592808 L0.442024 0.632808 L0.487024 0.687808 L0.497024 0.747808 L0.477024 0.812808 L0.432024 0.867808 L0.362023 0.912808 L0.309023 0.926808 L0.223024 0.924808 L0.153024 0.912808 L0.105024 0.896808" transform="translate(6.650, 1.150)" stroke="black" stroke-width="0.02" fill="none" stroke-linecap="round" stroke-linejoin="round" />
  <path d="M0.41849 0.270996 L0.048828 0.724199 L0.55322 0.724199 M0.414177 0.578167 L0.414177 0.94897" transform="translate(7.750, 1.150)" stroke="black" stroke-width="0.02" fill="none" stroke-linecap="round" stroke-linejoin="round" />
  <path d="M0.074951 0.270996 L0.074951 0.614701 L0.267654 0.5695 L0.405244 0.586502 L0.459999 0.617189 L0.498025 0.660731 L0.527097 0.779401 L0.513348 0.841049 L0.477271 0.889568 L0.406375 0.93463 L0.324443 0.958337 L0.247398 0.962139 L0.182515 0.949767 L0.130067 0.925508 L0.074951 0.875607 M0.074951 0.270996 L0.527097 0.270996" transform="translate(8.850, 1.150)" stroke="black" stroke-width="0.02" fill="none" stroke-linecap="round" stroke-linejoin="round" />
  <path d="M0.416375 0.257813 L0.337574 0.285009 L0.264574 0.312009 L0.202574 0.360009 L0.154374 0.410709 L0.117574 0.500009 L0.092274 0.583709 L0.089574 0.670009 L0.087674 0.756009 L0.107574 0.820009 L0.126574 0.860009 L0.171574 0.912009 L0.219574 0.947009 L0.293574 0.960009 L0.376574 0.955009 L0.441575 0.923009 L0.487575 0.880009 L0.512575 0.821009 L0.514575 0.771009 L0.500575 0.718009 L0.479575 0.673009 L0.447575 0.636009 L0.403574 0.613009 L0.342574 0.598009 L0.284574 0.595009 L0.223574 0.605009 L0.160574 0.641009 L0.127574 0.678009 L0.087474 0.723209" transform="translate(9.950, 1.150)" stroke="black" stroke-width="0.02" fill="none" stroke-linecap="round" stroke-linejoin="round" />
  <path d="M0.071533 0.270996 L0.530516 0.270996 L0.495932 0.291701 L0.477749 0.305407 L0.435183 0.346112 L0.412064 0.374136 L0.388563 0.40796 L0.365313 0.448098 L0.342941 0.495062 L0.322079 0.549366 L0.303362 0.611524 L0.287414 0.68205 L0.270075 0.804651 L0.262529 0.94897" transform="translate(0.050, 2.250)" stroke="black" stroke-width="0.02" fill="none" stroke-linecap="round" stroke-linejoin="round" />
  <path d="M0.290524 0.257813 L0.234524 0.27081 L0.183524 0.30281 L0.147524 0.37481 L0.161524 0.43881 L0.203524 0.48781 L0.247524 0.52281 L0.357524 0.57481 L0.425524 0.62281 L0.466524 0.67981 L0.475524 0.76081 L0.452524 0.83981 L0.402524 0.88781 L0.329524 0.91981 L0.273524 0.91781 L0.207524 0.88981 L0.154524 0.84481 L0.126524 0.77881 L0.128524 0.71281 L0.154524 0.64681 L0.212524 0.58781 L0.270524 0.56181 L0.343524 0.53181 L0.415524 0.48281 L0.437524 0.43581 L0.438524 0.35681 L0.413524 0.29981 L0.362524 0.26481 L0.290524 0.257813" transform="translate(1.150, 2.250)" stroke="black" stroke-width="0.02" fill="none" stroke-linecap="round" stroke-linejoin="round" />
  <path d="M0.485524 0.420812 L0.449524 0.321812 L0.392524 0.274812 L0.295524 0.257813 L0.220524 0.268812 L0.149524 0.329812 L0.101524 0.438812 L0.107524 0.548812 L0.171524 0.670812 L0.271524 0.710812 L0.392524 0.679812 L0.458524 0.609812 L0.490524 0.527812 L0.484524 0.422812 L0.500524 0.667812 L0.499524 0.784812 L0.485524 0.856812 L0.447524 0.924812 L0.402524 0.963812 L0.313524 0.991812 L0.211524 0.985812 L0.123524 0.958812" transform="translate(2.250, 2.250)" stroke="black" stroke-width="0.02" fill="none" stroke-linecap="round" stroke-linejoin="round" />
  <path d="M0.559081 0.441895 L0.042967 0.669384 L0.042967 0.669384 L0.559081 0.896888" transform="translate(3.350, 2.250)" stroke="black" stroke-width="0.02" fill="none" stroke-linecap="round" stroke-linejoin="round" />
  <path d="M0.042967 0.545898 L0.559081 0.545898 M0.042967 0.808369 L0.559081 0.808369" transform="translate(4.450, 2.250)" stroke="black" stroke-width="0.02" fill="none" stroke-linecap="round" stroke-linejoin="round" />
  <path d="M0.042967 0.441895 L0.559081 0.669384 L0.559081 0.669384 L0.042967 0.896888" transform="translate(5.550, 2.250)" stroke="black" stroke-width="0.02" fill="none" stroke-linecap="round" stroke-linejoin="round" />
  <path d="M0.018066 0.94897 L0.290177 0.270996 L0.583982 0.94897 M0.155301 0.684521 L0.433544 0.684521" transform="translate(6.650, 2.250)" stroke="black" stroke-width="0.02" fill="none" stroke-linecap="round" stroke-linejoin="round" />
  <path d="M0.063964 0.948969 L0.063964 0.278953 L0.209355 0.270996 L0.342485 0.294394 L0.432176 0.37292 L0.418221 0.487729 L0.312685 0.549166 L0.084727 0.575531 L0.306376 0.589433 L0.468874 0.647456 L0.538084 0.736658 L0.532397 0.852019 L0.501244 0.902982 L0.423547 0.944397 L0.063964 0.948969" transform="translate(7.750, 2.250)" stroke="black" stroke-width="0.02" fill="none" stroke-linecap="round" stroke-linejoin="round" />
  <path d="M0.529051 0.419845 L0.498422 0.345196 L0.442236 0.292343 L0.335829 0.257813 L0.257198 0.268359 L0.187905 0.303749 L0.120243 0.38543 L0.072998 0.599835 L0.110073 0.815369 L0.165381 0.902164 L0.222882 0.94278 L0.334903 0.961193 L0.432528 0.937658 L0.504813 0.868981 L0.529051 0.77205" transform="translate(8.850, 2.250)" stroke="black" stroke-width="0.02" fill="none" stroke-linecap="round" stroke-linejoin="round" />
  <path d="M0.064453 0.94897 L0.071837 0.285078 L0.171216 0.270996 L0.247346 0.272633 L0.371008 0.306078 L0.462457 0.378304 L0.514744 0.475555 L0.535587 0.576392 L0.537595 0.652313 L0.528061 0.717381 L0.508558 0.77242 L0.445944 0.855696 L0.362354 0.90871 L0.225202 0.945862 L0.064453 0.94897" transform="translate(9.950, 2.250)" stroke="black" stroke-width="0.02" fill="none" stroke-linecap="round" stroke-linejoin="round" />
  <path d="M0.080078 0.270996 L0.080078 0.94897 M0.080078 0.270996 L0.52197 0.270996 M0.080078 0.609981 L0.389403 0.609981 M0.080078 0.94897 L0.52197 0.94897" transform="translate(0.050, 3.350)" stroke="black" stroke-width="0.02" fill="none" stroke-linecap="round" stroke-linejoin="round" />
  <path d="M0.086424 0.270996 L0.086424 0.94897 M0.091302 0.275607 L0.515624 0.275607 M0.091302 0.607677 L0.447342 0.607677" transform="translate(1.150, 3.350)" stroke="black" stroke-width="0.02" fill="none" stroke-linecap="round" stroke-linejoin="round" />
  <path d="M0.498033 0.284945 L0.374621 0.257813 L0.244218 0.26865 L0.160576 0.311998 L0.094555 0.398114 L0.056396 0.584031 L0.076751 0.785517 L0.120864 0.858179 L0.188946 0.916714 L0.271007 0.95357 L0.357068 0.961193 L0.437148 0.932027 L0.501261 0.858522 L0.545653 0.648601 L0.329594 0.64812" transform="translate(2.250, 3.350)" stroke="black" stroke-width="0.02" fill="none" stroke-linecap="round" stroke-linejoin="round" />
  <path d="M0.066893 0.270996 L0.066893 0.94897 M0.066893 0.595658 L0.530007 0.595658 M0.535155 0.270996 L0.535155 0.94897" transform="translate(3.350, 3.350)" stroke="black" stroke-width="0.02" fill="none" stroke-linecap="round" stroke-linejoin="round" />
  <path d="M0.301024 0.270996 L0.301024 0.94897" transform="translate(4.450, 3.350)" stroke="black" stroke-width="0.02" fill="none" stroke-linecap="round" stroke-linejoin="round" />
  <path d="M0.506835 0.270996 L0.50781 0.782193 L0.498464 0.846168 L0.480729 0.880789 L0.455861 0.908321 L0.426092 0.929408 L0.360744 0.954812 L0.302507 0.962139 L0.223572 0.953639 L0.16538 0.930312 L0.137072 0.907715 L0.116428 0.880313 L0.102822 0.848819 L0.095633 0.813947 L0.094239 0.776413" transform="translate(5.550, 3.350)" stroke="black" stroke-width="0.02" fill="none" stroke-linecap="round" stroke-linejoin="round" />
  <path d="M0.035398 0.270996 L0.035398 0.94897 M0.502256 0.316194 L0.035398 0.687823 M0.212484 0.582361 L0.56665 0.933903" transform="translate(6.650, 3.350)" stroke="black" stroke-width="0.02" fill="none" stroke-linecap="round" stroke-linejoin="round" />
  <path d="M0.075438 0.270996 L0.075438 0.94897 L0.52661 0.94897" transform="translate(7.750, 3.350)" stroke="black" stroke-width="0.02" fill="none" stroke-linecap="round" stroke-linejoin="round" />
  <path d="M0.04248 0.94897 L0.04248 0.270996 L0.301025 0.712492 L0.559568 0.270996 L0.559568 0.94897" transform="translate(8.850, 3.350)" stroke="black" stroke-width="0.02" fill="none" stroke-linecap="round" stroke-linejoin="round" />
  <path d="M0.067871 0.94897 L0.067871 0.270996 L0.534177 0.94897 L0.525027 0.270996" transform="translate(9.950, 3.350)" stroke="black" stroke-width="0.02" fill="none" stroke-linecap="round" stroke-linejoin="round" />
  <path d="M0.287292 0.961192 L0.19843 0.933546 L0.1172 0.849433 L0.057129 0.563937 L0.114348 0.350255 L0.18455 0.289394 L0.3061 0.257813 L0.420538 0.295722 L0.48754 0.365002 L0.54492 0.625283 L0.516363 0.789607 L0.465473 0.884577 L0.375083 0.949265 L0.287292 0.961192" transform="translate(0.050, 4.450)" stroke="black" stroke-width="0.02" fill="none" stroke-linecap="round" stroke-linejoin="round" />
  <path d="M0.070555 0.94897 L0.070555 0.28379 L0.207038 0.270996 L0.329133 0.278993 L0.408522 0.300514 L0.444019 0.317908 L0.500634 0.368929 L0.525793 0.423728 L0.531493 0.50384 L0.508931 0.554205 L0.473721 0.582043 L0.417574 0.604365 L0.336373 0.620372 L0.226012 0.629268 L0.082366 0.630258" transform="translate(1.150, 4.450)" stroke="black" stroke-width="0.02" fill="none" stroke-linecap="round" stroke-linejoin="round" />
  <path d="M0.282434 1.05079 L0.195447 1.019624 L0.115933 0.924798 L0.057129 0.602934 L0.113139 0.362033 L0.18186 0.29342 L0.300843 0.257813 L0.412866 0.300555 L0.478454 0.378659 L0.534622 0.672093 L0.506668 0.85735 L0.456852 0.964416 L0.36837 1.037345 L0.282434 1.05079 M0.341224 0.815544 L0.54492 1.070629" transform="translate(2.250, 4.450)" stroke="black" stroke-width="0.02" fill="none" stroke-linecap="round" stroke-linejoin="round" />
  <path d="M0.034913 0.944113 L0.034913 0.288556 L0.227126 0.270996 L0.362035 0.276867 L0.443419 0.294907 L0.47764 0.309614 L0.505805 0.328757 L0.526612 0.352816 L0.544958 0.418061 L0.543236 0.475921 L0.524459 0.517817 L0.490756 0.546518 L0.444261 0.564799 L0.355193 0.578739 L0.047654 0.589627 M0.303052 0.617306 L0.567135 0.94897" transform="translate(3.350, 4.450)" stroke="black" stroke-width="0.02" fill="none" stroke-linecap="round" stroke-linejoin="round" />
  <path d="M0.483034 0.364332 L0.40761 0.26748 L0.228828 0.257813 L0.128621 0.327566 L0.08771 0.455535 L0.104654 0.51872 L0.168052 0.573299 L0.419277 0.617308 L0.503794 0.66933 L0.535155 0.759309 L0.493843 0.900035 L0.367666 0.961192 L0.205434 0.956639 L0.116709 0.907018 L0.066893 0.790318" transform="translate(4.450, 4.450)" stroke="black" stroke-width="0.02" fill="none" stroke-linecap="round" stroke-linejoin="round" />
  <path d="M0.02295 0.270996 L0.579098 0.270996 M0.309283 0.270996 L0.309283 0.94897" transform="translate(5.550, 4.450)" stroke="black" stroke-width="0.02" fill="none" stroke-linecap="round" stroke-linejoin="round" />
  <path d="M0.072021 0.270996 L0.073079 0.648875 L0.080371 0.75167 L0.099023 0.827813 L0.134785 0.885729 L0.181569 0.924024 L0.251463 0.95168 L0.339653 0.962139 L0.40155 0.951668 L0.452317 0.924086 L0.482698 0.891771 L0.495742 0.870529 L0.515697 0.816371 L0.525011 0.744626 L0.530028 0.272017" transform="translate(6.650, 4.450)" stroke="black" stroke-width="0.02" fill="none" stroke-linecap="round" stroke-linejoin="round" />
  <path d="M0.027832 0.270996 L0.320082 0.94897 L0.574216 0.270996" transform="translate(7.750, 4.450)" stroke="black" stroke-width="0.02" fill="none" stroke-linecap="round" stroke-linejoin="round" />
  <path d="M0 0.270996 L0.079799 0.940378 L0.285197 0.472884 L0.505252 0.94897 L0.602048 0.270996" transform="translate(8.850, 4.450)" stroke="black" stroke-width="0.02" fill="none" stroke-linecap="round" stroke-linejoin="round" />
  <path d="M0.009033 0.270996 L0.586802 0.94897 M0.593015 0.270996 L0.015245 0.94897" transform="translate(9.950, 4.450)" stroke="black" stroke-width="0.02" fill="none" stroke-linecap="round" stroke-linejoin="round" />
  <path d="M0.018066 0.270996 L0.29313 0.574135 M0.583982 0.271958 L0.294952 0.57606 L0.305275 0.94897" transform="translate(0.050, 5.550)" stroke="black" stroke-width="0.02" fill="none" stroke-linecap="round" stroke-linejoin="round" />
  <path d="M0.053711 0.270996 L0.548337 0.270996 L0.053711 0.94897 L0.548337 0.94897" transform="translate(1.150, 5.550)" stroke="black" stroke-width="0.02" fill="none" stroke-linecap="round" stroke-linejoin="round" />
  <path d="M0.40454 0.240234 L0.197509 0.240234 L0.197509 1.069426 L0.40454 1.069426" transform="translate(2.250, 5.550)" stroke="black" stroke-width="0.02" fill="none" stroke-linecap="round" stroke-linejoin="round" />
  <path d="M0.062499 0.270996 L0.539549 1.035249" transform="translate(3.350, 5.550)" stroke="black" stroke-width="0.02" fill="none" stroke-linecap="round" stroke-linejoin="round" />
  <path d="M0.197509 0.240234 L0.40454 0.240234 L0.40454 1.069426 L0.197509 1.069426" transform="translate(4.450, 5.550)" stroke="black" stroke-width="0.02" fill="none" stroke-linecap="round" stroke-linejoin="round" />
  <path d="M0.035156 0.523931 L0.301023 0.270996 L0.566892 0.523931" transform="translate(5.550, 5.550)" stroke="black" stroke-width="0.02" fill="none" stroke-linecap="round" stroke-linejoin="round" />
  <path d="M0 1.160603 L0.602048 1.160603" transform="translate(6.650, 5.550)" stroke="black" stroke-width="0.02" fill="none" stroke-linecap="round" stroke-linejoin="round" />
  <path d="M0.527097 0.439941 L0.527097 0.973966 M0.527097 0.553823 L0.451363 0.477534 L0.376757 0.439941 L0.263721 0.439941 L0.187988 0.477534 L0.112254 0.553823 L0.074951 0.66881 L0.074951 0.7451 L0.112254 0.85898 L0.187988 0.93527 L0.263721 0.973966 L0.376757 0.973966 L0.451363 0.93527 L0.527097 0.85898" transform="translate(7.750, 5.550)" stroke="black" stroke-width="0.02" fill="none" stroke-linecap="round" stroke-linejoin="round" />
  <path d="M0.076661 0.240234 L0.076661 0.959987 M0.076661 0.582737 L0.151822 0.514237 L0.225864 0.480483 L0.338043 0.480483 L0.413207 0.514237 L0.48837 0.582737 L0.525387 0.685984 L0.525387 0.754486 L0.48837 0.85674 L0.413207 0.925241 L0.338043 0.959987 L0.225864 0.959987 L0.151822 0.925241 L0.076661 0.85674" transform="translate(8.850, 5.550)" stroke="black" stroke-width="0.02" fill="none" stroke-linecap="round" stroke-linejoin="round" />
  <path d="M0.51245 0.553822 L0.441622 0.477534 L0.371853 0.439941 L0.266139 0.439941 L0.195311 0.477534 L0.124485 0.553822 L0.089599 0.668808 L0.089599 0.745099 L0.124485 0.858979 L0.195311 0.93527 L0.266139 0.973966 L0.371853 0.973966 L0.441622 0.93527 L0.51245 0.858979" transform="translate(9.950, 5.550)" stroke="black" stroke-width="0.02" fill="none" stroke-linecap="round" stroke-linejoin="round" />
  <path d="M0.525387 0.240234 L0.525387 0.959987 M0.525387 0.582737 L0.450228 0.514237 L0.376186 0.480483 L0.264005 0.480483 L0.188843 0.514237 L0.11368 0.582737 L0.076661 0.685984 L0.076661 0.754486 L0.11368 0.85674 L0.188843 0.925241 L0.264005 0.959987 L0.376186 0.959987 L0.450228 0.925241 L0.525387 0.85674" transform="translate(0.050, 6.650)" stroke="black" stroke-width="0.02" fill="none" stroke-linecap="round" stroke-linejoin="round" />
  <path d="M0.05957 0.668808 L0.542479 0.668808 M0.542479 0.592521 L0.502638 0.516231 L0.461591 0.477534 L0.381913 0.439941 L0.261185 0.439941 L0.180298 0.477534 L0.099411 0.553822 L0.05957 0.668808 L0.05957 0.745099 L0.099411 0.858979 L0.180298 0.93527 L0.261185 0.973966 L0.381913 0.973966 L0.461591 0.93527 L0.542479 0.858979" transform="translate(1.150, 6.650)" stroke="black" stroke-width="0.02" fill="none" stroke-linecap="round" stroke-linejoin="round" />
  <path d="M0.512936 0.240234 L0.406981 0.240234 L0.301024 0.274345 L0.248046 0.37473 L0.248046 0.946817 M0.089112 0.476088 L0.459961 0.476088" transform="translate(2.250, 6.650)" stroke="black" stroke-width="0.02" fill="none" stroke-linecap="round" stroke-linejoin="round" />
  <path d="M0.525387 0.439941 L0.525387 0.989396 L0.488368 1.09192 L0.450226 1.126759 L0.376186 1.160603 L0.264003 1.160603 L0.188843 1.126759 L0.113681 1.058077 L0.076661 0.954556 M0.525387 0.542467 L0.450226 0.473785 L0.376186 0.439941 L0.264003 0.439941 L0.188843 0.473785 L0.113681 0.542467 L0.076661 0.645988 L0.076661 0.714669 L0.113681 0.817194 L0.188843 0.885876 L0.264003 0.920714 L0.376186 0.920714 L0.450226 0.885876 L0.525387 0.817194" transform="translate(3.350, 6.650)" stroke="black" stroke-width="0.02" fill="none" stroke-linecap="round" stroke-linejoin="round" />
  <path d="M0.09204 0.240234 L0.09204 0.946817 M0.09204 0.61058 L0.205936 0.509224 L0.282213 0.476086 L0.396108 0.476086 L0.471867 0.509224 L0.510008 0.61058 L0.510008 0.946817" transform="translate(4.450, 6.650)" stroke="black" stroke-width="0.02" fill="none" stroke-linecap="round" stroke-linejoin="round" />
  <path d="M0.270312 0.240234 L0.331737 0.240234 M0.301018 0.476088 L0.301018 0.946816" transform="translate(5.550, 6.650)" stroke="black" stroke-width="0.02" fill="none" stroke-linecap="round" stroke-linejoin="round" />
  <path d="M0.384891 0.240234 L0.446316 0.240234 M0.415601 0.465708 L0.415601 1.01169 L0.383485 1.108587 L0.253063 1.140265 L0.155733 1.108587" transform="translate(6.650, 6.650)" stroke="black" stroke-width="0.02" fill="none" stroke-linecap="round" stroke-linejoin="round" />
  <path d="M0.065184 0.240234 L0.065184 0.946817 M0.493821 0.476086 L0.065184 0.812323 M0.236756 0.677829 L0.536864 0.946817" transform="translate(7.750, 6.650)" stroke="black" stroke-width="0.02" fill="none" stroke-linecap="round" stroke-linejoin="round" />
  <path d="M0.301024 0.234863 L0.301024 0.946442" transform="translate(8.850, 6.650)" stroke="black" stroke-width="0.02" fill="none" stroke-linecap="round" stroke-linejoin="round" />
  <path d="M0.050536 0.439941 L0.050536 0.960798 M0.050536 0.588758 L0.114403 0.476606 L0.157176 0.439941 L0.236862 0.439941 L0.279636 0.476606 L0.322409 0.588758 L0.322409 0.960798 M0.322409 0.588758 L0.386278 0.476606 L0.428464 0.439941 L0.508737 0.439941 L0.551512 0.476606 L0.551512 0.960798" transform="translate(9.950, 6.650)" stroke="black" stroke-width="0.02" fill="none" stroke-linecap="round" stroke-linejoin="round" />
  <path d="M0.09204 0.439941 L0.09204 0.960798 M0.09204 0.588758 L0.205935 0.476606 L0.282215 0.439941 L0.396112 0.439941 L0.471868 0.476606 L0.510008 0.588758 L0.510008 0.960798" transform="translate(0.050, 7.750)" stroke="black" stroke-width="0.02" fill="none" stroke-linecap="round" stroke-linejoin="round" />
  <path d="M0.247174 0.439941 L0.175177 0.477534 L0.103184 0.553822 L0.066893 0.668808 L0.066893 0.745099 L0.103184 0.858979 L0.175177 0.93527 L0.247174 0.973966 L0.354873 0.973966 L0.42687 0.93527 L0.498864 0.858979 L0.535155 0.745099 L0.535155 0.668808 L0.498864 0.553822 L0.42687 0.477534 L0.354873 0.439941 L0.247174 0.439941" transform="translate(1.150, 7.750)" stroke="black" stroke-width="0.02" fill="none" stroke-linecap="round" stroke-linejoin="round" />
  <path d="M0.076904 0.439941 L0.076904 1.154244 M0.076904 0.541563 L0.151985 0.473486 L0.225943 0.439941 L0.338003 0.439941 L0.413084 0.473486 L0.488163 0.541563 L0.525144 0.644169 L0.525144 0.712246 L0.488163 0.813866 L0.413084 0.881942 L0.338003 0.916472 L0.225943 0.916472 L0.151985 0.881942 L0.076904 0.813866" transform="translate(2.250, 7.750)" stroke="black" stroke-width="0.02" fill="none" stroke-linecap="round" stroke-linejoin="round" />
  <path d="M0.525144 0.441895 L0.525144 1.156181 M0.525144 0.5435 L0.450064 0.47544 L0.376104 0.441895 L0.264041 0.441895 L0.188965 0.47544 L0.113884 0.5435 L0.076904 0.646106 L0.076904 0.714184 L0.113884 0.815803 L0.188965 0.883879 L0.264041 0.91841 L0.376104 0.91841 L0.450064 0.883879 L0.525144 0.815803" transform="translate(3.350, 7.750)" stroke="black" stroke-width="0.02" fill="none" stroke-linecap="round" stroke-linejoin="round" />
  <path d="M0.107422 0.439941 L0.107422 0.960798 M0.107422 0.663164 L0.155824 0.551014 L0.252625 0.476606 L0.349427 0.439941 L0.494627 0.439941" transform="translate(4.450, 7.750)" stroke="black" stroke-width="0.02" fill="none" stroke-linecap="round" stroke-linejoin="round" />
  <path d="M0.475553 0.477534 L0.400756 0.439941 L0.276091 0.439941 L0.17636 0.477534 L0.101562 0.553822 L0.101562 0.630111 L0.17636 0.668808 L0.301023 0.668808 L0.425686 0.745099 L0.500487 0.821388 L0.500487 0.897678 L0.425686 0.93527 L0.325955 0.973966 L0.201294 0.973966 L0.126495 0.93527 L0.101562 0.858979" transform="translate(5.550, 7.750)" stroke="black" stroke-width="0.02" fill="none" stroke-linecap="round" stroke-linejoin="round" />
  <path d="M0.246031 0.297852 L0.246031 0.826532 L0.301021 0.919303 L0.411008 0.950827 L0.520994 0.950827 M0.081054 0.515794 L0.466001 0.515794" transform="translate(6.650, 7.750)" stroke="black" stroke-width="0.02" fill="none" stroke-linecap="round" stroke-linejoin="round" />
  <path d="M0.09204 0.454102 L0.09204 0.826124 L0.130179 0.937198 L0.205935 0.97494 L0.319831 0.97494 L0.396112 0.937198 L0.510008 0.826124 M0.510008 0.454102 L0.510008 0.97494" transform="translate(7.750, 7.750)" stroke="black" stroke-width="0.02" fill="none" stroke-linecap="round" stroke-linejoin="round" />
  <path d="M0.048828 0.453125 L0.301025 0.961719 M0.55322 0.453125 L0.301025 0.961719" transform="translate(8.850, 7.750)" stroke="black" stroke-width="0.02" fill="none" stroke-linecap="round" stroke-linejoin="round" />
  <path d="M0 0.453125 L0.150511 0.961719 M0.301023 0.453125 L0.150511 0.961719 M0.301023 0.453125 L0.451536 0.961719 M0.602048 0.453125 L0.451536 0.961719" transform="translate(9.950, 7.750)" stroke="black" stroke-width="0.02" fill="none" stroke-linecap="round" stroke-linejoin="round" />
  <path d="M0.037108 0.453125 L0.56494 0.961719 M0.56494 0.453125 L0.037108 0.961719" transform="translate(0.050, 8.850)" stroke="black" stroke-width="0.02" fill="none" stroke-linecap="round" stroke-linejoin="round" />
  <path d="M0.084616 0.453125 L0.32023 0.921476 M0.557128 0.453125 L0.32023 0.921476 L0.242117 1.05529 L0.163367 1.122197 L0.084616 1.155167 L0.04492 1.155167" transform="translate(1.150, 8.850)" stroke="black" stroke-width="0.02" fill="none" stroke-linecap="round" stroke-linejoin="round" />
  <path d="M0.505369 0.452148 L0.096679 0.96165 M0.096679 0.452148 L0.505369 0.452148 M0.096679 0.96165 L0.505369 0.96165" transform="translate(2.250, 8.850)" stroke="black" stroke-width="0.02" fill="none" stroke-linecap="round" stroke-linejoin="round" />
</svg>